{"title":"Juzo Itami - Tampopo (1985)","uid":7066136,"size":1679259332,"categoryP":"video","categoryS":"movies","magnet":"?xt=urn:btih:fc17e591eb0e60bef83f179e97b4bbe46adb3380&amp;dn=Juzo+Itami+-+Tampopo+%281985%29&amp;tr=udp%3A%2F%2Ftracker.openbittorrent.com%3A80&amp;tr=udp%3A%2F%2Fopen.demonii.com%3A1337&amp;tr=udp%3A%2F%2Ftracker.coppersurfer.tk%3A6969&amp;tr=udp%3A%2F%2Fexodus.desync.com%3A6969","seeders":5,"leechers":0,"uploader":"mfccorrea","files":6,"time":1330476984,"description":"In this humorous paean to the joys of food, the main story is about trucker Goro who rides into town like a modern Shane to help Tampopo set up the perfect fast-food noodle restaurant. Woven into this main story are a number of smaller stories about the importance of food, ranging from a gangster who mixes hot sex with food to an old lady terrorizing a shopkeeper by compulsive squeezing of his wares.  Tampopo, a widowed noodle chef, is helped to become a first class chef by truck driver Goro and friends. Food is the theme throughout this movie and it includes novel uses of food as erotic toy.\n\n&quot;Tampopo&quot; is a movie that most anyone will find quite funny, but it will be even more funny to those familiar with the Japanese people. It is an excellent example of the ability of the Japanese to laugh at themselves, at those things that are peculiarly Japanese, and at their love affair with western culture.\n\n   General\n      Complete name : Tampopo.mkv\n      Format : Matroska\n      File size : 1.56 GiB\n      Duration : 1h 54mn\n      Overall bit rate : 1 961 Kbps\n      Encoded date : UTC 2012-02-28 12:38:52\n      Writing application : mkvmerge v5.3.0 ('I could have danced') built on Feb  9 2012 10:38:07\n      Writing library : libebml v1.2.3 + libmatroska v1.3.0\n   Video #1\n      ID : 1\n      Format : AVC\n      Format/Info : Advanced Video Codec\n      Format profile : &lt;a class=&quot;__cf_email__&quot; href=&quot;/cdn-cgi/l/email-protection&quot; data-cfemail=&quot;f9b4989097b9b5cad7c9&quot;&gt;[email&amp;#160;protected]&lt;/a&gt;&lt;script cf-hash='f9e31' type=&quot;text/javascript&quot;&gt;\n/* &lt;![CDATA[ */!function(){try{var t=&quot;currentScript&quot;in document?document.currentScript:function(){for(var t=document.getElementsByTagName(&quot;script&quot;),e=t.length;e--;)if(t[e].getAttribute(&quot;cf-hash&quot;))return t[e]}();if(t&amp;&amp;t.previousSibling){var e,r,n,i,c=t.previousSibling,a=c.getAttribute(&quot;data-cfemail&quot;);if(a){for(e=&quot;&quot;,r=parseInt(a.substr(0,2),16),n=2;a.length-n;n+=2)i=parseInt(a.substr(n,2),16)^r,e+=String.fromCharCode(i);e=document.createTextNode(e),c.parentNode.replaceChild(e,c)}}}catch(u){}}();/* ]]&gt; */&lt;/script&gt;\n      Format settings, CABAC : Yes\n      Format settings, ReFrames : 2 frames\n      Muxing mode : Container profile=&lt;a class=&quot;__cf_email__&quot; href=&quot;/cdn-cgi/l/email-protection&quot; data-cfemail=&quot;da8fb4b1b4b5adb49ae9f4ea&quot;&gt;[email&amp;#160;protected]&lt;/a&gt;&lt;script cf-hash='f9e31' type=&quot;text/javascript&quot;&gt;\n/* &lt;![CDATA[ */!function(){try{var t=&quot;currentScript&quot;in document?document.currentScript:function(){for(var t=document.getElementsByTagName(&quot;script&quot;),e=t.length;e--;)if(t[e].getAttribute(&quot;cf-hash&quot;))return t[e]}();if(t&amp;&amp;t.previousSibling){var e,r,n,i,c=t.previousSibling,a=c.getAttribute(&quot;data-cfemail&quot;);if(a){for(e=&quot;&quot;,r=parseInt(a.substr(0,2),16),n=2;a.length-n;n+=2)i=parseInt(a.substr(n,2),16)^r,e+=String.fromCharCode(i);e=document.createTextNode(e),c.parentNode.replaceChild(e,c)}}}catch(u){}}();/* ]]&gt; */&lt;/script&gt;\n      Codec ID : V_MPEG4/ISO/AVC\n      Duration : 1h 54mn\n      Bit rate : 1 698 Kbps\n      Nominal bit rate : 1 734 Kbps\n      Width : 672 pixels\n      Height : 360 pixels\n      Display aspect ratio : 1.867\n      Frame rate : 23.976 fps\n      Resolution : 24 bits\n      Colorimetry : 4:2:0\n      Scan type : Progressive\n      Bits/(Pixel*Frame) : 0.293\n      Stream size : 1.35 GiB (87%)\n   Audio #2\n      ID : 2\n      Format : AC-3\n      Format/Info : Audio Coding 3\n      Codec ID : A_AC3\n      Duration : 1h 54mn\n      Bit rate mode : Constant\n      Bit rate : 224 Kbps\n      Channel(s) : 2 channels\n      Channel positions : L R\n      Sampling rate : 48.0 KHz\n      Stream size : 183 MiB (11%)\n      Language : Japanese\n   Text #3\n      ID : 3\n      Format : VobSub\n      Codec ID : S_VOBSUB\n      Codec ID/Info : The same subtitle format used on DVDs\n &lt;a href=&quot;\nhttp://www.imdb.com/title/tt0092048/&quot; rel=&quot;nofollow&quot; target=&quot;_NEW&quot;&gt;\nhttp://www.imdb.com/title/tt0092048/&lt;/a&gt;\n\nLanguage: Japanese\nSubtitles: English, French, Spanish, Italian and Portuguese\n\nMy rip of the Japanese DVD\n\nJuzo Itami - Tampopo (1985)\n\n\n","torrent":{"xt":"urn:btih:fc17e591eb0e60bef83f179e97b4bbe46adb3380","amp;dn":"Juzo+Itami+-+Tampopo+%281985%29","amp;tr":["udp%3A%2F%2Ftracker.openbittorrent.com%3A80","udp%3A%2F%2Fopen.demonii.com%3A1337","udp%3A%2F%2Ftracker.coppersurfer.tk%3A6969","udp%3A%2F%2Fexodus.desync.com%3A6969"],"infoHash":"fc17e591eb0e60bef83f179e97b4bbe46adb3380","infoHashBuffer":{"type":"Buffer","data":[252,23,229,145,235,14,96,190,248,63,23,158,151,180,187,228,106,219,51,128]},"announce":[],"urlList":[]}}